<?xml version="1.0" encoding="utf-8"?>
<!-- Generator: Adobe Illustrator 19.2.1, SVG Export Plug-In . SVG Version: 6.00 Build 0)  -->
<svg version="1.1" id="Layer_1" xmlns="http://www.w3.org/2000/svg" xmlns:xlink="http://www.w3.org/1999/xlink" x="0px" y="0px"
	 viewBox="0 0 155.9 155.9" style="enable-background:new 0 0 155.9 155.9;" xml:space="preserve">
<style type="text/css">
	.st0{fill:#FFFFFF;}
	.st1{fill:#F47F2A;}
</style>
<circle class="st0" cx="78" cy="78" r="78"/>
<g>
	<circle class="st1" cx="78" cy="33.5" r="19.2"/>
</g>
<path class="st1" d="M105,108.1H48.2v-23c0-15.3,12.5-27.9,27.9-27.9h1.1c15.3,0,27.9,12.5,27.9,27.9V108.1z"/>
<path class="st1" d="M61.5,61L61.5,61c5,2,7.6,7.7,5.6,12.8l-14.4,37.1c-1.6,4.1-6.3,6.2-10.4,4.6l-3.5-1.3
	c-4.1-1.6-6.2-6.3-4.6-10.4l14.4-37.1C50.7,61.6,56.4,59.1,61.5,61z"/>
<path class="st0" d="M52.7,116L52.7,116c-1.8-5.4,1.1-11.4,6.5-13.2l21.2-7.2c4.4-1.5,9.2,0.9,10.7,5.3l1.3,3.7
	c1.5,4.4-0.9,9.2-5.3,10.7l-21.1,7.1C60.5,124.4,54.5,121.4,52.7,116z"/>
<path class="st1" d="M90.9,61.5L90.9,61.5c-4,2.7-5.1,8.2-2.4,12.2l23.3,34.6c2.2,3.3,6.7,4.1,9.9,1.9l2.7-1.8
	c3.3-2.2,4.1-6.7,1.9-9.9l-23.3-34.6C100.4,59.8,94.9,58.8,90.9,61.5z"/>
<path class="st1" d="M127.3,100.5L127.3,100.5c-1.6-3.8-6.1-5.6-9.9-3.9l-25.3,10.9c-3.1,1.3-4.5,5-3.2,8.1l1.1,2.6
	c1.3,3.1,5,4.5,8.1,3.2l25.3-10.9C127.1,108.8,128.9,104.3,127.3,100.5z"/>
<g>
	<circle class="st0" cx="100.7" cy="96" r="9.6"/>
</g>
<path class="st1" d="M36.5,103.4L36.5,103.4c2.4-3.4,7.1-4.2,10.5-1.8l22.5,15.9c2.8,2,3.4,5.8,1.5,8.6l-1.6,2.3
	c-2,2.8-5.8,3.4-8.6,1.5L38.3,114C34.9,111.6,34.1,106.8,36.5,103.4z"/>
</svg>
