<?xml version="1.0" encoding="utf-8"?>
<!-- Generator: Adobe Illustrator 19.2.1, SVG Export Plug-In . SVG Version: 6.00 Build 0)  -->
<svg version="1.1" id="Layer_1" xmlns="http://www.w3.org/2000/svg" xmlns:xlink="http://www.w3.org/1999/xlink" x="0px" y="0px"
	 viewBox="0 0 158.1 158.1" style="enable-background:new 0 0 158.1 158.1;" xml:space="preserve">
<style type="text/css">
	.st0{fill:#F47F2A;}
	.st1{fill:#FFFFFF;}
</style>
<circle class="st0" cx="79.1" cy="79.1" r="79.1"/>
<g>
	<circle class="st1" cx="79.1" cy="33.9" r="19.5"/>
</g>
<path class="st1" d="M106.5,108.9H48.9V85.5c0-15.5,12.7-28.3,28.3-28.3h1.1c15.5,0,28.3,12.7,28.3,28.3V108.9z"/>
<path class="st1" d="M62.4,61.9L62.4,61.9c5.1,2,7.7,7.8,5.7,12.9l-14.6,37.6c-1.6,4.2-6.4,6.3-10.5,4.6l-3.5-1.4
	c-4.2-1.6-6.3-6.4-4.6-10.5l14.6-37.6C51.4,62.5,57.2,59.9,62.4,61.9z"/>
<path class="st0" d="M53.4,117.6L53.4,117.6c-1.9-5.5,1.1-11.5,6.6-13.4L81.5,97c4.5-1.5,9.4,0.9,10.9,5.4l1.3,3.8
	c1.5,4.5-0.9,9.4-5.4,10.9l-21.4,7.3C61.3,126.1,55.3,123.1,53.4,117.6z"/>
<path class="st1" d="M92.2,62.3L92.2,62.3c-4.1,2.7-5.1,8.3-2.4,12.3l23.7,35.1c2.2,3.3,6.7,4.2,10,2l2.8-1.9c3.3-2.2,4.2-6.7,2-10
	l-23.7-35.1C101.8,60.7,96.2,59.6,92.2,62.3z"/>
<path class="st1" d="M129,101.9L129,101.9c-1.7-3.9-6.2-5.7-10.1-4l-25.6,11c-3.1,1.4-4.6,5-3.3,8.2l1.1,2.6c1.4,3.1,5,4.6,8.2,3.3
	l25.6-11C128.9,110.3,130.7,105.7,129,101.9z"/>
<g>
	<circle class="st0" cx="102.1" cy="97.3" r="9.7"/>
</g>
<path class="st1" d="M37.1,104.9L37.1,104.9c2.4-3.4,7.2-4.3,10.7-1.8l22.8,16.1c2.8,2,3.5,5.9,1.5,8.7l-1.7,2.3
	c-2,2.8-5.9,3.5-8.7,1.5l-22.8-16.1C35.4,113.1,34.6,108.3,37.1,104.9z"/>
</svg>
