<?xml version="1.0" encoding="utf-8"?>
<!-- Generator: Adobe Illustrator 19.2.1, SVG Export Plug-In . SVG Version: 6.00 Build 0)  -->
<svg version="1.1" id="Layer_1" xmlns="http://www.w3.org/2000/svg" xmlns:xlink="http://www.w3.org/1999/xlink" x="0px" y="0px"
	 viewBox="0 0 162.3 162.3" style="enable-background:new 0 0 162.3 162.3;" xml:space="preserve">
<style type="text/css">
	.st0{fill:#F47F2A;}
	.st1{fill:#FFFFFF;}
	.st2{fill:none;stroke:#FFFFFF;stroke-width:8.7191;stroke-linecap:round;stroke-linejoin:round;stroke-miterlimit:10;}
	.st3{fill:none;stroke:#F47F2A;stroke-width:8;stroke-linecap:round;stroke-linejoin:round;stroke-miterlimit:10;}
</style>
<circle class="st0" cx="81.1" cy="81.1" r="81.1"/>
<path class="st1" d="M149.1,82.5c0-8.7-7-15.7-15.7-15.7c-0.5,0-0.9,0-1.4,0.1c-9-15.6-28.4-26.4-50.9-26.4
	c-22.8,0-42.4,11.1-51.3,27.1c-1-0.2-2-0.3-3-0.3c-8.7,0-15.7,7-15.7,15.7s7,15.7,15.7,15.7c0,0,0,0,0,0
	c6.5,19.5,28.3,33.8,54.2,33.8c26.2,0,48.2-14.6,54.5-34.5C143.2,97,149.1,90.4,149.1,82.5z"/>
<path class="st2" d="M46.6,23c0,0,19,0.8,22.6,12.9"/>
<path class="st2" d="M80.1,34.5c1.5-4.2-0.5-12.9,14-20.9"/>
<circle class="st0" cx="62.9" cy="77.2" r="5.6"/>
<circle class="st0" cx="99.7" cy="77.6" r="5.6"/>
<path class="st3" d="M65.9,101c0,0,4.2,10.5,15.2,10.5c13,0,15.7-10.5,15.7-10.5"/>
</svg>
