<?xml version="1.0" encoding="utf-8"?>
<!-- Generator: Adobe Illustrator 19.2.1, SVG Export Plug-In . SVG Version: 6.00 Build 0)  -->
<svg version="1.1" id="Layer_1" xmlns="http://www.w3.org/2000/svg" xmlns:xlink="http://www.w3.org/1999/xlink" x="0px" y="0px"
	 viewBox="0 0 157.8 157.8" style="enable-background:new 0 0 157.8 157.8;" xml:space="preserve">
<style type="text/css">
	.st0{fill:#F47F2A;}
	.st1{fill:#FFFFFF;}
	.st2{fill:none;stroke:#F47F2A;stroke-width:3.8905;stroke-linecap:round;stroke-linejoin:round;stroke-miterlimit:10;}
	.st3{fill:none;stroke:#FFFFFF;stroke-width:5.8357;stroke-linecap:round;stroke-linejoin:round;stroke-miterlimit:10;}
</style>
<circle class="st0" cx="78.9" cy="78.9" r="78.9"/>
<circle class="st1" cx="108.4" cy="33.9" r="4.9"/>
<g>
	<path class="st1" d="M98.9,21.3C77.5,21.3,60,38.7,60,60.2c0,8.7,2.8,16.7,7.6,23.2c1-1.3,2.2-2.6,3.7-3.6
		c5.4-3.9,11.7-4.3,14.2-0.8c2.5,3.4,0.2,9.4-5.2,13.3c-0.6,0.4-1.2,0.8-1.8,1.2c5.9,3.6,12.9,5.7,20.3,5.7
		c21.5,0,38.9-17.4,38.9-38.9C137.8,38.7,120.4,21.3,98.9,21.3z"/>
	<path class="st1" d="M67.7,83.4c-2.5,3.4-3.2,7.2-1.4,9.7c2.2,3.1,7.5,3.1,12.4,0.4C74.4,90.8,70.7,87.4,67.7,83.4z"/>
	<path class="st0" d="M85.6,78.9c-2.5-3.4-8.9-3.1-14.2,0.8c-1.5,1.1-2.7,2.3-3.7,3.6c3,4,6.7,7.4,11,10c0.6-0.3,1.2-0.7,1.8-1.2
		C85.8,88.3,88.2,82.4,85.6,78.9z"/>
</g>
<circle class="st0" cx="98.9" cy="36.6" r="7.3"/>
<path class="st2" d="M63.7,97.4"/>
<path class="st3" d="M61,97.4c-4.1,1.6-4.6,8.7-11.7,14.2c-4.8,3.8-15.3,4.9-20.2,7.1c-1.3,0.6-4.4,3.4-4.4,3.4"/>
</svg>
