<?xml version="1.0" encoding="utf-8"?>
<!-- Generator: Adobe Illustrator 19.2.1, SVG Export Plug-In . SVG Version: 6.00 Build 0)  -->
<svg version="1.1" id="Layer_1" xmlns="http://www.w3.org/2000/svg" xmlns:xlink="http://www.w3.org/1999/xlink" x="0px" y="0px"
	 viewBox="0 0 155.9 155.9" style="enable-background:new 0 0 155.9 155.9;" xml:space="preserve">
<style type="text/css">
	.st0{fill:#FFFFFF;}
	.st1{fill:#F47F2A;}
	.st2{fill:none;stroke:#F47F2A;stroke-width:3.8443;stroke-linecap:round;stroke-linejoin:round;stroke-miterlimit:10;}
	.st3{fill:none;stroke:#F47F2A;stroke-width:5.7665;stroke-linecap:round;stroke-linejoin:round;stroke-miterlimit:10;}
</style>
<circle class="st0" cx="78" cy="78" r="78"/>
<circle class="st0" cx="107.1" cy="33.5" r="4.8"/>
<g>
	<path class="st1" d="M97.8,21.1c-21.2,0-38.4,17.2-38.4,38.4c0,8.6,2.8,16.5,7.6,22.9c1-1.3,2.2-2.5,3.7-3.6
		c5.3-3.8,11.6-4.2,14.1-0.8c2.5,3.4,0.2,9.3-5.1,13.1c-0.6,0.4-1.2,0.8-1.8,1.2c5.8,3.6,12.7,5.6,20.1,5.6
		c21.2,0,38.4-17.2,38.4-38.4C136.2,38.3,119,21.1,97.8,21.1z"/>
	<path class="st1" d="M66.9,82.4c-2.5,3.3-3.2,7.1-1.4,9.5c2.2,3,7.4,3.1,12.2,0.4C73.5,89.7,69.8,86.3,66.9,82.4z"/>
	<path class="st0" d="M84.6,78c-2.5-3.4-8.8-3-14.1,0.8c-1.5,1.1-2.7,2.3-3.7,3.6c2.9,4,6.6,7.3,10.8,9.9c0.6-0.3,1.2-0.7,1.8-1.2
		C84.8,87.3,87.1,81.4,84.6,78z"/>
</g>
<circle class="st0" cx="97.8" cy="36.2" r="7.2"/>
<path class="st2" d="M62.9,96.2"/>
<path class="st3" d="M60.3,96.2c-4.1,1.6-4.6,8.6-11.5,14c-4.8,3.7-15.2,4.8-19.9,7.1c-1.2,0.6-4.3,3.4-4.3,3.4"/>
</svg>
