<?xml version="1.0" encoding="utf-8"?>
<!-- Generator: Adobe Illustrator 19.2.1, SVG Export Plug-In . SVG Version: 6.00 Build 0)  -->
<svg version="1.1" id="Layer_1" xmlns="http://www.w3.org/2000/svg" xmlns:xlink="http://www.w3.org/1999/xlink" x="0px" y="0px"
	 viewBox="0 0 159.7 159.7" style="enable-background:new 0 0 159.7 159.7;" xml:space="preserve">
<style type="text/css">
	.st0{fill:#F47F2A;}
	.st1{fill:#FFFFFF;}
</style>
<circle class="st0" cx="79.9" cy="79.9" r="79.9"/>
<g>
	<path class="st1" d="M113.5,95.4c0.3,4.1-0.2,7.9-1.5,11.3c-1.2,3.4-3.1,6.4-5.7,9c-2.5,2.6-5.6,4.7-9.3,6.4
		c-3.7,1.7-7.8,2.9-12.4,3.6l-0.5,15.5c0,0.4-0.1,0.7-0.3,1c-0.1,0.3-0.4,0.6-0.9,0.8c-0.4,0.2-1.1,0.4-1.8,0.6
		c-0.8,0.2-1.8,0.3-3,0.4c-1.5,0.1-2.8,0.1-3.7,0c-0.9-0.1-1.7-0.2-2.2-0.5c-0.5-0.2-0.9-0.6-1.1-1c-0.2-0.4-0.3-0.9-0.2-1.4
		l0.5-14.7c-2.1-0.2-4-0.4-5.9-0.7c-1.9-0.3-3.5-0.7-5.1-1.2c-1.5-0.5-2.8-0.9-4-1.4c-1.1-0.5-2-1-2.6-1.5c-0.6-0.5-1-1.3-1.3-2.4
		c-0.3-1.1-0.5-2.6-0.7-4.8c-0.1-1.6-0.1-3-0.1-4c0-1.1,0.1-1.9,0.3-2.5c0.2-0.6,0.5-1,0.8-1.2c0.3-0.2,0.8-0.4,1.2-0.4
		c0.6,0,1.6,0.3,2.8,0.9c1.2,0.6,2.8,1.3,4.8,2.1s4.2,1.4,7,1.9s5.9,0.7,9.5,0.5c5.6-0.4,9.7-1.7,12.3-4c2.6-2.3,3.8-5.1,3.6-8.6
		c-0.2-2.3-0.9-4.2-2.1-5.6c-1.3-1.4-2.9-2.6-5-3.6c-2-1-4.3-1.9-6.9-2.6c-2.5-0.7-5.1-1.5-7.8-2.3c-2.7-0.8-5.3-1.8-7.8-3
		c-2.6-1.2-4.9-2.7-7-4.5c-2.1-1.8-3.8-4.1-5.2-6.8c-1.4-2.7-2.2-6.1-2.4-10.1c-0.2-3.6,0.1-6.9,1.2-9.9c1-3,2.6-5.7,4.7-8.1
		c2.1-2.4,4.8-4.3,8-5.9c3.2-1.6,6.9-2.8,11-3.5l0.5-14.6c0-0.4,0.1-0.7,0.3-1c0.2-0.3,0.4-0.5,0.9-0.8c0.4-0.2,1-0.4,1.8-0.6
		c0.8-0.1,1.8-0.3,3-0.3c1.5-0.1,2.7-0.1,3.7,0c1,0.1,1.8,0.2,2.3,0.5c0.5,0.2,0.9,0.6,1.1,1c0.2,0.4,0.3,0.9,0.3,1.4L88,32.3
		c1.4,0.1,2.8,0.3,4.3,0.5c1.5,0.2,2.9,0.5,4.3,0.9c1.3,0.4,2.5,0.8,3.6,1.2c1.1,0.4,1.8,0.8,2.3,1.2c0.4,0.4,0.8,0.8,1,1.2
		c0.2,0.4,0.4,0.9,0.6,1.5c0.2,0.6,0.3,1.3,0.4,2.1c0.1,0.8,0.2,1.8,0.3,2.9c0.1,1.5,0.1,2.7,0.1,3.7c0,1-0.1,1.7-0.3,2.2
		c-0.2,0.5-0.4,0.9-0.6,1c-0.2,0.2-0.5,0.3-0.8,0.3c-0.6,0-1.6-0.2-2.8-0.8c-1.2-0.5-2.8-1.1-4.6-1.7C94,48,92,47.4,89.7,47
		c-2.3-0.5-4.8-0.6-7.6-0.4c-2.5,0.2-4.6,0.5-6.4,1.1C74,48.3,72.6,49,71.5,50c-1,0.9-1.8,2-2.2,3.3c-0.4,1.2-0.6,2.6-0.5,4
		c0.1,2.3,0.9,4.1,2.2,5.6c1.3,1.5,3,2.7,5,3.6c2.1,1,4.4,1.8,7,2.6c2.6,0.7,5.2,1.5,7.9,2.4c2.7,0.8,5.3,1.8,7.9,3
		c2.6,1.2,5,2.6,7,4.4c2.1,1.8,3.8,4.1,5.2,6.7C112.4,88.2,113.2,91.5,113.5,95.4z"/>
</g>
</svg>
