<?xml version="1.0" encoding="utf-8"?>
<!-- Generator: Adobe Illustrator 19.2.1, SVG Export Plug-In . SVG Version: 6.00 Build 0)  -->
<svg version="1.1" id="Layer_1" xmlns="http://www.w3.org/2000/svg" xmlns:xlink="http://www.w3.org/1999/xlink" x="0px" y="0px"
	 viewBox="0 0 155.9 155.9" style="enable-background:new 0 0 155.9 155.9;" xml:space="preserve">
<style type="text/css">
	.st0{fill:#FFFFFF;}
	.st1{fill:#F47F2A;}
</style>
<circle class="st0" cx="78" cy="78" r="78"/>
<g>
	<path class="st1" d="M110.8,93.1c0.3,4-0.2,7.7-1.4,11c-1.2,3.3-3.1,6.2-5.5,8.8c-2.5,2.5-5.5,4.6-9.1,6.2
		c-3.6,1.6-7.6,2.8-12.1,3.5l-0.5,15.1c0,0.4-0.1,0.7-0.3,1c-0.1,0.3-0.4,0.5-0.9,0.8c-0.4,0.2-1,0.4-1.8,0.6
		c-0.8,0.2-1.7,0.3-2.9,0.4c-1.5,0.1-2.7,0.1-3.6,0c-0.9-0.1-1.7-0.2-2.2-0.5c-0.5-0.2-0.9-0.5-1.1-1c-0.2-0.4-0.3-0.9-0.2-1.4
		l0.5-14.4c-2-0.1-4-0.4-5.8-0.7c-1.8-0.3-3.5-0.7-4.9-1.2c-1.5-0.4-2.8-0.9-3.9-1.4s-1.9-1-2.5-1.5c-0.6-0.5-1-1.3-1.3-2.3
		c-0.3-1-0.5-2.6-0.7-4.6c-0.1-1.6-0.1-2.9-0.1-3.9c0-1,0.1-1.8,0.3-2.4c0.2-0.6,0.5-1,0.8-1.2c0.3-0.2,0.7-0.4,1.2-0.4
		c0.6,0,1.5,0.3,2.7,0.9c1.2,0.6,2.8,1.3,4.6,2c1.9,0.7,4.1,1.3,6.8,1.9c2.6,0.5,5.7,0.7,9.2,0.5c5.5-0.4,9.5-1.6,12-3.9
		c2.5-2.2,3.7-5,3.5-8.4c-0.1-2.2-0.8-4.1-2.1-5.4c-1.2-1.4-2.9-2.6-4.9-3.5c-2-1-4.2-1.8-6.7-2.5c-2.5-0.7-5-1.5-7.6-2.3
		c-2.6-0.8-5.1-1.8-7.6-3c-2.5-1.2-4.8-2.6-6.8-4.4c-2-1.8-3.7-4-5.1-6.7c-1.3-2.7-2.1-5.9-2.4-9.8c-0.2-3.5,0.1-6.7,1.1-9.7
		c1-3,2.5-5.6,4.6-7.9c2.1-2.3,4.6-4.2,7.8-5.8c3.1-1.5,6.7-2.7,10.7-3.4L73.4,18c0-0.4,0.1-0.7,0.3-1c0.1-0.3,0.4-0.5,0.9-0.8
		c0.4-0.2,1-0.4,1.8-0.6c0.7-0.1,1.7-0.3,2.9-0.3c1.5-0.1,2.7-0.1,3.6,0c1,0.1,1.7,0.2,2.3,0.5c0.5,0.2,0.9,0.5,1.1,1
		c0.2,0.4,0.3,0.9,0.3,1.4l-0.5,13.4c1.3,0.1,2.7,0.3,4.2,0.5c1.5,0.2,2.9,0.5,4.2,0.9c1.3,0.4,2.5,0.8,3.5,1.2
		c1.1,0.4,1.8,0.8,2.2,1.2c0.4,0.4,0.8,0.7,1,1.1c0.2,0.4,0.4,0.9,0.6,1.4c0.2,0.6,0.3,1.3,0.4,2.1c0.1,0.8,0.2,1.8,0.3,2.8
		c0.1,1.5,0.1,2.6,0.1,3.6c0,0.9-0.1,1.7-0.2,2.2c-0.2,0.5-0.3,0.8-0.6,1c-0.2,0.2-0.5,0.3-0.8,0.3c-0.6,0-1.5-0.2-2.7-0.7
		c-1.2-0.5-2.7-1.1-4.4-1.7c-1.8-0.6-3.8-1.1-6-1.6c-2.3-0.5-4.7-0.6-7.4-0.4c-2.4,0.2-4.5,0.5-6.2,1.1c-1.7,0.6-3.1,1.3-4.1,2.2
		c-1,0.9-1.8,2-2.2,3.2c-0.4,1.2-0.6,2.5-0.5,3.9c0.1,2.2,0.9,4,2.1,5.4c1.3,1.4,2.9,2.6,4.9,3.6c2,1,4.3,1.8,6.8,2.5
		c2.5,0.7,5.1,1.5,7.7,2.3c2.6,0.8,5.2,1.8,7.7,2.9c2.5,1.1,4.8,2.6,6.9,4.3c2,1.8,3.7,4,5.1,6.6C109.7,86.1,110.5,89.3,110.8,93.1z
		"/>
</g>
</svg>
