<?xml version="1.0" encoding="utf-8"?>
<!-- Generator: Adobe Illustrator 19.2.1, SVG Export Plug-In . SVG Version: 6.00 Build 0)  -->
<svg version="1.1" id="Layer_1" xmlns="http://www.w3.org/2000/svg" xmlns:xlink="http://www.w3.org/1999/xlink" x="0px" y="0px"
	 viewBox="0 0 162.3 162.3" style="enable-background:new 0 0 162.3 162.3;" xml:space="preserve">
<style type="text/css">
	.st0{fill:#FFFFFF;}
	.st1{fill:#F47F2A;}
</style>
<polygon class="st0" points="56.9,72.1 69.8,81.6 67.1,63.6 "/>
<path class="st0" d="M162.3,81.1C162.3,36.3,125.9,0,81.1,0C36.3,0,0,36.3,0,81.1c0,43.7,34.5,79.2,77.7,81l3.1-19.3l-31.8-0.6
	l19.7-46.4c-0.3-0.1-0.5-0.3-0.8-0.5L44.8,78.5c-0.7-0.5-1.3-1.2-1.7-1.9c-0.2-0.2-0.4-0.3-0.5-0.5c-2.2-2.6-1.8-6.5,0.8-8.7
	l21.6-17.9l0-0.2c0,0,13.6-10.8,22.1,0c10.9,13.8,52.7,50.5,24.8,68.4l1.2,25.3H94.5l-2.2,18.6C131.9,156,162.3,122.1,162.3,81.1z
	 M80.8,40.9c-9.1,0-16.5-7.4-16.5-16.5c0-9.1,7.4-16.5,16.5-16.5s16.5,7.4,16.5,16.5C97.3,33.5,89.9,40.9,80.8,40.9z"/>
<g>
	<circle class="st1" cx="80.8" cy="24.4" r="16.5"/>
</g>
<g>
	<g>
		<path class="st1" d="M113,142.9l-1.2-25.3c27.8-17.9-14-54.6-24.8-68.4c-8.5-10.8-22.1,0-22.1,0l0,0.2L43.3,67.3
			c-2.6,2.2-3,6.1-0.8,8.7c0.2,0.2,0.4,0.4,0.5,0.5c0.4,0.7,1,1.4,1.7,1.9l23.1,16.9c0.2,0.2,0.5,0.3,0.8,0.5l-19.7,46.4l31.8,0.6
			l-3.1,19.3c1.1,0,2.3,0.1,3.4,0.1c3.8,0,7.6-0.3,11.2-0.8l2.2-18.6H113z M56.9,72.1l10.2-8.5l2.8,18L56.9,72.1z"/>
	</g>
</g>
</svg>
